<svg xmlns="http://www.w3.org/2000/svg" viewBox="0 0 64 64" role="img" aria-label="몽키 어시스턴트">
  <rect width="64" height="64" rx="18" fill="#101512"/>
  <circle cx="15" cy="30" r="9" fill="#72ddb1"/>
  <circle cx="49" cy="30" r="9" fill="#72ddb1"/>
  <path d="M32 8c12.7 0 22 9.9 22 23.3C54 46 44.8 56 32 56S10 46 10 31.3C10 17.9 19.3 8 32 8Z" fill="#72ddb1"/>
  <path d="M32 18c4.2 0 7.6 2 9.5 5.3 4.7.7 7.5 4.2 7.5 9.4C49 43 42.5 49 32 49s-17-6-17-16.3c0-5.2 2.8-8.7 7.5-9.4C24.4 20 27.8 18 32 18Z" fill="#101512"/>
  <circle cx="25" cy="31" r="2.5" fill="#f3f6f4"/>
  <circle cx="39" cy="31" r="2.5" fill="#f3f6f4"/>
  <path d="M27 40c1.6 1.5 3.2 2.2 5 2.2s3.4-.7 5-2.2" fill="none" stroke="#72ddb1" stroke-width="3" stroke-linecap="round"/>
</svg>
